<svg id="Livello_1" data-name="Livello 1" xmlns="http://www.w3.org/2000/svg" viewBox="0 0 710.19 710.19"><defs><style>.cls-1{stroke:#93278f;stroke-miterlimit:10;stroke-width:21.05px;}.cls-2{fill:#fff;}.cls-3{fill:#51b747;}.cls-4{fill:#122910;}.cls-5{fill:#37a94a;}.cls-6{fill:#8bc860;}.cls-7{fill:#281f1f;}.cls-8{fill:#ccc;}</style></defs><circle cx="355.09" cy="355.09" r="355.09"/><circle class="cls-1" cx="355.09" cy="355.09" r="316.1"/><path class="cls-2" d="M352.32,537.08l-1.63.09,1.63-2.28Zm4.68-5.47.31,1.35-1.1.39Zm4.12,0,1-2.25,0,0,.13,1.82Zm5.84-4,.82-1.65.61,1.41Zm44.78-.83,1.56-1.17,1.18,1.63Zm8.69-22.51c1.43-.15,2.81-.28,4.11-.36l-4,2.6A7.34,7.34,0,0,0,420.43,504.3Zm2.37,27.39.17-2.41,1.3,2.93Zm.73,4.94,2.24-1,.54,1.21Z" transform="translate(-44.87 -52.33)"/><path class="cls-2" d="M594.68,467.22l-7.86-3.93a122.61,122.61,0,0,0-16.35-6.75,11.46,11.46,0,0,0-.34-4.3A11.12,11.12,0,0,0,559.47,444l-14.8.37c-1.54,0-3.08.08-4.64.14-.07-.19-.15-.37-.23-.56a11.35,11.35,0,0,0-1.06-1.83,11.46,11.46,0,0,0-.68-14l2.4-2.77a.76.76,0,0,1,.08-.11c2.74-3.28,4.88-6,6.75-8.62.07-.1.14-.19.2-.29l3.72-5.12a11.47,11.47,0,0,0,1.26-11.2,11.28,11.28,0,0,0-5.18-5.6l13.21-12.7a11.46,11.46,0,0,0,2.88-11.86,11.24,11.24,0,0,0-5-6.17A112.48,112.48,0,0,0,567,347.08l1.59-3.79a11.48,11.48,0,0,0-.13-9.12,11.12,11.12,0,0,0-6.68-6.05,229.51,229.51,0,0,0,7-22.89l1.18-4.72a11.44,11.44,0,0,0-2-9.72,11,11,0,0,0-8.75-4.37h-4.76a75,75,0,0,0-28.64,5.74l-1.06.45a11.32,11.32,0,0,0-2.33-1.9,10.91,10.91,0,0,0-12.25.57l-7.11,5.31a87.72,87.72,0,0,0-7,5.79,10.82,10.82,0,0,0-4.72-1.08,11,11,0,0,0-8.38,3.9l-9.69,11.42a114.08,114.08,0,0,0-7.68,10.16l.56-7.85a11.32,11.32,0,0,0-6.56-11.16,10.8,10.8,0,0,0-3.1-.87,109,109,0,0,0,0-16.46l-.84-11.23a11.21,11.21,0,0,0-8.34-10.09,10.45,10.45,0,0,0-1.73-.3A73.39,73.39,0,0,0,439,249.88l-5.93-11.47a11,11,0,0,0-9.79-6,11.34,11.34,0,0,0-1.74.14,131.52,131.52,0,0,0-11-15.64l-2.06-2.51a10.94,10.94,0,0,0-17,0l-2.07,2.52a132.15,132.15,0,0,0-11,15.63,11.34,11.34,0,0,0-1.74-.14,11,11,0,0,0-9.79,6L361,249.9a74,74,0,0,0-6.63,18.92,10.33,10.33,0,0,0-1.72.3,11.21,11.21,0,0,0-8.34,10.09l-.84,11.21a109.23,109.23,0,0,0,0,16.48,10.8,10.8,0,0,0-3.1.87,11.32,11.32,0,0,0-6.56,11.16l.56,7.85a112.65,112.65,0,0,0-7.68-10.16L317,305.2a11,11,0,0,0-8.38-3.9,10.82,10.82,0,0,0-4.72,1.08,85.76,85.76,0,0,0-7-5.79l-7.1-5.31a10.91,10.91,0,0,0-12.25-.57,11.32,11.32,0,0,0-2.33,1.9l-1-.43a75,75,0,0,0-28.69-5.76h-4.75a11,11,0,0,0-8.75,4.37,11.44,11.44,0,0,0-2,9.72l1.18,4.71a226.31,226.31,0,0,0,7.05,22.9,11.12,11.12,0,0,0-6.68,6.05,11.48,11.48,0,0,0-.13,9.12l1.58,3.78a112.65,112.65,0,0,0,8.62,16.64,11.24,11.24,0,0,0-5,6.17,11.46,11.46,0,0,0,2.88,11.86l13.21,12.7a11.28,11.28,0,0,0-5.18,5.6,11.47,11.47,0,0,0,1.26,11.2l3.72,5.12c.06.1.13.19.2.29,1.87,2.6,4,5.34,6.75,8.62a.76.76,0,0,1,.08.11l2.4,2.77a11.46,11.46,0,0,0-.68,14A11.35,11.35,0,0,0,260.2,444c-.08.19-.16.37-.23.56-1.55-.06-3.09-.11-4.62-.14L240.53,444a11.12,11.12,0,0,0-10.66,8.24,11.46,11.46,0,0,0-.34,4.3,123.29,123.29,0,0,0-16.36,6.75l-7.85,3.93A11.37,11.37,0,0,0,206.41,488l8.19,3c3.51,1.31,7,2.65,10.5,4a11.41,11.41,0,0,0-.94,6.7,11.18,11.18,0,0,0,9.06,9.31L244,512.9c3.26.56,6.54,1.09,9.84,1.57a11.35,11.35,0,0,0,.43,3.95,11.13,11.13,0,0,0,10.24,8.07l11.16.38c2.18.07,4.38.12,6.57.14a11.59,11.59,0,0,0,.84,4,11.08,11.08,0,0,0,10.23,7l9.71-.21c2.45,0,4.91-.15,7.36-.3a11.41,11.41,0,0,0,1.09,3.52,11,11,0,0,0,9.88,6.2h.33l8-.25c3.54-.16,6.88-.35,10.07-.57-.64,2.15-1.12,4.21-1.6,6.26-.24,1-.49,2.1-.77,3.22a114.68,114.68,0,0,1-6.17,18,11.47,11.47,0,0,0,1.83,12.09,11,11,0,0,0,8.28,3.8,10.88,10.88,0,0,0,3.27-.51,126,126,0,0,0,33.68-16.39A121.48,121.48,0,0,0,400,553.67a121.3,121.3,0,0,0,21.73,19.1,125.75,125.75,0,0,0,33.67,16.39,10.88,10.88,0,0,0,3.27.51,11,11,0,0,0,8.28-3.8,11.47,11.47,0,0,0,1.83-12.09,114.33,114.33,0,0,1-6.17-18c-.28-1.12-.53-2.19-.77-3.22-.48-2.05-1-4.11-1.6-6.26,3.19.22,6.53.41,10.07.57l8,.25h.33a11.06,11.06,0,0,0,9.89-6.2,11.67,11.67,0,0,0,1.08-3.52q3.69.22,7.38.3l9.69.21A11.09,11.09,0,0,0,517,531a11.59,11.59,0,0,0,.84-4c2.19,0,4.39-.07,6.58-.14l11.15-.38a11.13,11.13,0,0,0,10.24-8.07,11.35,11.35,0,0,0,.43-3.95c3.3-.48,6.59-1,9.85-1.57L566.78,511a11.18,11.18,0,0,0,9.06-9.31,11.41,11.41,0,0,0-.94-6.7c3.47-1.36,7-2.69,10.47-4l8.22-3.05a11.37,11.37,0,0,0,1.09-20.74Z" transform="translate(-44.87 -52.33)"/><path class="cls-3" d="M570.38,476.56l-.33.14q-5.68,2.16-11.33,4.46c-3.37,1.34-6.7,2.78-10,4.21l-10,4.28-11.39,4.86,10.47,2.06c-8.13,1.06-16.29,1.87-24.47,2.37l-8.09.5,5.63,5.94c.91,1,1.83,1.88,2.77,2.77-9.06,0-18.14-.46-27.17-1.38l-9.57-.95,6.41,7.23c1.6,1.78,3.19,3.61,4.82,5.38a175.64,175.64,0,0,1-27-4L451,512.05l6.43,8.34,5.73,7.43q-8.22-.57-17-1.58c-9.08-1.06-17.71-2.39-25.85-3.89a135.9,135.9,0,0,1,7.36,12,138.43,138.43,0,0,1,9.13,20.6,109.62,109.62,0,0,0-20.31-21.73,108.08,108.08,0,0,0-16.25-10.93l-.16-.28,0,.07a0,0,0,1,0-.08,0l0-.07-.16.28a108.08,108.08,0,0,0-16.25,10.93A109.62,109.62,0,0,0,363.21,555a138.43,138.43,0,0,1,9.13-20.6,135.9,135.9,0,0,1,7.36-12c-8.14,1.5-16.77,2.83-25.85,3.89q-8.75,1-17,1.58l5.73-7.43,6.43-8.34-10.14,2.33a175.64,175.64,0,0,1-27,4c1.63-1.77,3.22-3.6,4.82-5.38l6.41-7.23-9.57.95c-9,.92-18.11,1.36-27.17,1.38.94-.89,1.86-1.81,2.77-2.77l5.63-5.94-8.09-.5c-8.18-.5-16.34-1.31-24.47-2.37l10.47-2.06-11.39-4.86-10-4.28c-3.33-1.43-6.66-2.87-10-4.21q-5.66-2.31-11.33-4.46l-.33-.14a96.63,96.63,0,0,1,12.88-4.15,100.61,100.61,0,0,1,22.31-3l11.94-.21-8-5.39q11,.76,21.94,2.35l11.62,1.68-6-5.72c1.09.22,2.18.47,3.27.73,1.55.41,3.1.84,4.64,1.31,2.38,1.59,4.81,3.14,7.3,4.56,2.11,1.23,4.27,2.4,6.45,3.5l3.28,1.64c.55.27,1.1.54,1.65.79l.85.38.42.18.21.1.11,0,.12.07a.79.79,0,0,0,.22.08h.06c1.4.6,2.82,1.16,4.25,1.71s3,1.14,4.56,1.67c-1.27-1-2.56-2-3.84-3s-2.58-2-3.88-2.92l-.7-.17a.66.66,0,0,1,.37,0c.07,0,.12,0,.18,0l.06.05-.08-.08-.18-.14c-.83-.65-1.65-1.3-2.48-2l-2.85-2.24L314.7,464c-3.7-3-7.29-6.14-10.85-9.33s-7.07-6.42-10.55-9.72l-3.9-3.75,4.1-.82,9.85-2-7.81-6.43c-2.51-2.06-5-4.15-7.37-6.34s-4.82-4.34-7.14-6.59-4.68-4.5-6.93-6.85c-.59-.58-1.16-1.16-1.72-1.73l2.61-.33c1.67-.2,3.35-.41,5-.54l5-.44,7.94-.71-5.59-5.67-7.23-7.37c-2.43-2.43-4.81-4.94-7.28-7.31l-8.94-8.6,6.59-.67,8.25-.82-6.13-5.71a93.4,93.4,0,0,1-20.8-28.35,21.9,21.9,0,0,1,6.85.27l7.23,1.47-3.18-6.8a208.78,208.78,0,0,1-12.39-33.33,55.18,55.18,0,0,1,16.78,4.11A55.94,55.94,0,0,1,285.54,322l5.46,5.53.79-7.63.31-2.94v-.05a67.72,67.72,0,0,1,8.26,9.38,68.84,68.84,0,0,1,5.44,8.73,70.81,70.81,0,0,1,4.17,9.48l2.66,7.4,4-6.76a23.15,23.15,0,0,0,2.73-7.13,1.22,1.22,0,0,1,.12.19A104.08,104.08,0,0,1,333.33,370v.05l4.47,17.19,2.5-16.57,0-.16a132.58,132.58,0,0,0,2.49,15.68c.95,4.09,2,8.17,3.33,12.14.65,2,1.34,4,2.06,5.93s1.53,3.89,2.34,5.83c1.61,3.85,3.43,7.59,5.38,11.27s4.07,7.25,6.3,10.72a127.71,127.71,0,0,0,15.27,19.33,237.85,237.85,0,0,1-11.46-21.52c-1.7-3.64-3.3-7.36-4.78-11.08-.72-1.86-1.46-3.74-2.1-5.65s-1.35-3.77-2-5.66q-1.81-5.73-3.34-11.51c-1-3.87-1.93-7.74-2.7-11.65-.94-4.41-1.72-8.85-2.41-13.29a54.42,54.42,0,0,0,13.65,7.8l10,3.87-5.5-9.34A102.38,102.38,0,0,1,354.45,340c-.18-.93-.34-1.87-.48-2.8a40.92,40.92,0,0,0,12,5.45l7.79,2.08-3.52-7.37a89.84,89.84,0,0,1-8.6-35.78,38.43,38.43,0,0,0,7.88,5.67l8.56,4.6-3.37-9.24a55.84,55.84,0,0,1-3.28-22.29,54.69,54.69,0,0,1,2.12-12.12,31,31,0,0,0,2.09,3.42l4.48,6.23,2.06-7.45A112.84,112.84,0,0,1,400,233.62a112.84,112.84,0,0,1,17.84,36.76l2.06,7.45,4.48-6.23a31,31,0,0,0,2.09-3.42,54.69,54.69,0,0,1,2.12,12.12,55.84,55.84,0,0,1-3.28,22.29l-3.37,9.24,8.56-4.6a38.43,38.43,0,0,0,7.88-5.67,89.84,89.84,0,0,1-8.6,35.78l-3.52,7.37,7.79-2.08a40.92,40.92,0,0,0,12-5.45c-.14.93-.3,1.87-.48,2.8a102.38,102.38,0,0,1-12.42,33.41l-5.5,9.34,10-3.87a54.42,54.42,0,0,0,13.65-7.8c-.69,4.44-1.47,8.88-2.41,13.29-.77,3.91-1.71,7.78-2.7,11.65s-2.13,7.69-3.34,11.51c-.63,1.89-1.28,3.8-2,5.66s-1.38,3.79-2.1,5.65c-1.48,3.72-3.08,7.44-4.78,11.08a237.85,237.85,0,0,1-11.46,21.52,127.71,127.71,0,0,0,15.27-19.33c2.23-3.47,4.37-7,6.3-10.72s3.77-7.42,5.38-11.27c.81-1.94,1.58-3.87,2.34-5.83s1.41-3.94,2.06-5.93c1.33-4,2.38-8,3.33-12.14a132.58,132.58,0,0,0,2.49-15.68l0,.16,2.5,16.57,4.47-17.19V370a105.22,105.22,0,0,1,13.87-31.78,1.22,1.22,0,0,1,.12-.19,23.15,23.15,0,0,0,2.73,7.13l4,6.76,2.66-7.4a70.81,70.81,0,0,1,4.17-9.48,68.84,68.84,0,0,1,5.44-8.73,67.72,67.72,0,0,1,8.26-9.38V317l.31,2.94.79,7.63,5.46-5.53a55.94,55.94,0,0,1,18.38-12.44,55.18,55.18,0,0,1,16.78-4.11,208.78,208.78,0,0,1-12.39,33.33l-3.18,6.8,7.23-1.47a21.9,21.9,0,0,1,6.85-.27,93.4,93.4,0,0,1-20.8,28.35l-6.13,5.71,8.25.82,6.59.67L527.1,388c-2.47,2.37-4.85,4.88-7.28,7.31l-7.23,7.37L507,408.37l7.94.71,5,.44c1.68.13,3.36.34,5,.54l2.61.33c-.56.57-1.13,1.15-1.72,1.73-2.25,2.35-4.59,4.61-6.93,6.85s-4.73,4.43-7.14,6.59-4.86,4.28-7.37,6.34l-7.81,6.43,9.85,2,4.1.82-3.9,3.75q-5.22,4.95-10.55,9.72c-3.56,3.19-7.15,6.3-10.85,9.33l-5.59,4.56-2.85,2.24c-.83.67-1.65,1.32-2.48,2l-.18.14-.08.08.06-.05c.06,0,.11,0,.18,0a.66.66,0,0,1,.37,0l-.7.17q-1.95,1.44-3.88,2.92c-1.28,1-2.57,2-3.84,3,1.53-.53,3.05-1.08,4.56-1.67s2.85-1.11,4.25-1.71h.06a.79.79,0,0,0,.22-.08l.12-.07.11,0,.21-.1.42-.18.85-.38c.55-.25,1.1-.52,1.65-.79l3.28-1.64c2.18-1.1,4.34-2.27,6.45-3.5,2.49-1.42,4.92-3,7.3-4.56,1.54-.47,3.09-.9,4.64-1.31,1.09-.26,2.18-.51,3.27-.73l-6,5.72,11.62-1.68q10.94-1.59,21.94-2.35l-8,5.39,11.94.21a100.61,100.61,0,0,1,22.31,3A96.63,96.63,0,0,1,570.38,476.56Z" transform="translate(-44.87 -52.33)"/><path class="cls-4" d="M400,522.11a.09.09,0,0,0,0-.05.09.09,0,0,0,0,.05v0ZM326,473q1.95,1.44,3.88,2.92c1.28,1,2.57,2,3.84,3-1.53-.53-3.05-1.08-4.56-1.67s-2.85-1.11-4.25-1.71h-.06a.79.79,0,0,1-.22-.08l-.12-.07-.11,0-.21-.1-.42-.18-.85-.38c-.55-.25-1.1-.52-1.65-.79L318,472.27c-2.18-1.1-4.34-2.27-6.45-3.5-2.49-1.42-4.92-3-7.3-4.56-1.54-.47-3.09-.9-4.64-1.31-1.09-.26-2.18-.51-3.27-.73l6,5.72-11.62-1.68q-10.93-1.59-21.94-2.35l8,5.39-11.94.21a100.61,100.61,0,0,0-22.31,3,96.63,96.63,0,0,0-12.88,4.15q5.85,2.24,11.66,4.6c3.37,1.34,6.7,2.78,10,4.21l10,4.28,11.39,4.86-10.47,2.06c8.13,1.06,16.29,1.87,24.47,2.37l8.09.5-5.63,5.94c-.91,1-1.83,1.88-2.77,2.77,9.06,0,18.14-.46,27.17-1.38l9.57-.95-6.41,7.23c-1.6,1.78-3.19,3.61-4.82,5.38a175.64,175.64,0,0,0,27-4L349,512.05l-6.43,8.34-5.73,7.43q8.22-.57,17-1.58c9.08-1.06,17.71-2.39,25.85-3.89a135.9,135.9,0,0,0-7.36,12,138.43,138.43,0,0,0-9.13,20.6,109.62,109.62,0,0,1,20.31-21.73,108.08,108.08,0,0,1,16.25-10.93l.16-.28,0,.07a0,0,0,1,1,.08,0l0-.07.16.28a108.08,108.08,0,0,1,16.25,10.93A109.62,109.62,0,0,1,436.79,555a138.43,138.43,0,0,0-9.13-20.6,135.9,135.9,0,0,0-7.36-12c8.14,1.5,16.77,2.83,25.85,3.89q8.75,1,17,1.58l-5.73-7.43L451,512.05l10.14,2.33a175.64,175.64,0,0,0,27,4c-1.63-1.77-3.22-3.6-4.82-5.38l-6.41-7.23,9.57.95c9,.92,18.11,1.36,27.17,1.38-.94-.89-1.86-1.81-2.77-2.77l-5.63-5.94,8.09-.5c8.18-.5,16.34-1.31,24.47-2.37l-10.47-2.06,11.39-4.86,10-4.28c3.33-1.43,6.66-2.87,10-4.21q5.82-2.37,11.66-4.6a96.63,96.63,0,0,0-12.88-4.15,100.61,100.61,0,0,0-22.31-3l-11.94-.21,8-5.39q-11,.76-21.94,2.35l-11.62,1.68,6-5.72c-1.09.22-2.18.47-3.27.73-1.55.41-3.1.84-4.64,1.31-2.38,1.59-4.81,3.14-7.3,4.56-2.11,1.23-4.27,2.4-6.45,3.5l-3.28,1.64c-.55.27-1.1.54-1.65.79l-.85.38-.42.18-.21.1-.11,0-.12.07a.79.79,0,0,1-.22.08h-.06c-1.4.6-2.82,1.16-4.25,1.71s-3,1.14-4.56,1.67c1.27-1,2.56-2,3.84-3s2.58-2,3.88-2.92l.7-.17a.66.66,0,0,0-.37,0c-.07,0-.12,0-.18,0l-.06.05.08-.08.18-.14,2.48-2,2.85-2.24L485.3,464c3.7-3,7.29-6.14,10.85-9.33s7.07-6.42,10.55-9.72l3.9-3.75-4.1-.82-9.85-2,7.81-6.43c2.51-2.06,5-4.15,7.37-6.34s4.82-4.34,7.14-6.59,4.68-4.5,6.93-6.85c.59-.58,1.16-1.16,1.72-1.73l-2.61-.33c-1.67-.2-3.35-.41-5-.54l-5-.44-7.94-.71,5.59-5.67,7.23-7.37c2.43-2.43,4.81-4.94,7.28-7.31l8.94-8.6-6.59-.67-8.25-.82,6.13-5.71a93.4,93.4,0,0,0,20.8-28.35,21.9,21.9,0,0,0-6.85.27l-7.23,1.47,3.18-6.8a208.78,208.78,0,0,0,12.39-33.33,55.18,55.18,0,0,0-16.78,4.11A55.94,55.94,0,0,0,514.46,322L509,327.56l-.79-7.63L507.9,317v-.05a67,67,0,0,0-8.25,9.38,67.79,67.79,0,0,0-5.45,8.73,70.81,70.81,0,0,0-4.17,9.48l-2.66,7.4-4-6.76a23.15,23.15,0,0,1-2.73-7.13,1.22,1.22,0,0,0-.12.19A104.08,104.08,0,0,0,466.67,370v.05l-4.47,17.19-2.5-16.57,0-.16a132.58,132.58,0,0,1-2.49,15.68c-.95,4.09-2,8.17-3.33,12.14-.65,2-1.34,4-2.06,5.93s-1.53,3.89-2.34,5.83c-1.61,3.85-3.43,7.59-5.38,11.27s-4.07,7.25-6.3,10.72a127.71,127.71,0,0,1-15.27,19.33A237.85,237.85,0,0,0,434,429.9c1.7-3.64,3.3-7.36,4.78-11.08.72-1.86,1.46-3.74,2.1-5.65s1.34-3.77,2-5.66q1.81-5.73,3.34-11.51c1-3.87,1.93-7.74,2.7-11.65.94-4.41,1.72-8.85,2.41-13.29a54.42,54.42,0,0,1-13.65,7.8l-10,3.87,5.5-9.34A102.38,102.38,0,0,0,445.55,340c.18-.93.34-1.87.48-2.8a40.92,40.92,0,0,1-12,5.45l-7.79,2.08,3.52-7.37a89.84,89.84,0,0,0,8.6-35.78,38.43,38.43,0,0,1-7.88,5.67l-8.56,4.6,3.37-9.24a55.84,55.84,0,0,0,3.28-22.29,54.69,54.69,0,0,0-2.12-12.12,31,31,0,0,1-2.09,3.42l-4.48,6.23-2.06-7.45A112.84,112.84,0,0,0,400,233.62a112.84,112.84,0,0,0-17.84,36.76l-2.06,7.45-4.48-6.23a31,31,0,0,1-2.09-3.42,54.69,54.69,0,0,0-2.12,12.12,55.84,55.84,0,0,0,3.28,22.29l3.37,9.24-8.56-4.6a38.43,38.43,0,0,1-7.88-5.67,89.84,89.84,0,0,0,8.6,35.78l3.52,7.37L366,342.63a40.92,40.92,0,0,1-12-5.45c.14.93.3,1.87.48,2.8a102.38,102.38,0,0,0,12.42,33.41l5.5,9.34-10-3.87a54.42,54.42,0,0,1-13.65-7.8c.69,4.44,1.47,8.88,2.41,13.29.77,3.91,1.71,7.78,2.7,11.65s2.13,7.69,3.34,11.51c.64,1.89,1.28,3.8,2,5.66s1.38,3.79,2.1,5.65c1.48,3.72,3.08,7.44,4.78,11.08a237.85,237.85,0,0,0,11.46,21.52,127.71,127.71,0,0,1-15.27-19.33c-2.23-3.47-4.37-7-6.3-10.72s-3.77-7.42-5.38-11.27c-.81-1.94-1.58-3.87-2.34-5.83s-1.41-3.94-2.06-5.93c-1.33-4-2.38-8-3.33-12.14a132.58,132.58,0,0,1-2.49-15.68l0,.16-2.5,16.57-4.47-17.19V370a105.22,105.22,0,0,0-13.87-31.78,1.22,1.22,0,0,0-.12-.19,23.15,23.15,0,0,1-2.73,7.13l-4,6.76-2.66-7.4a70.81,70.81,0,0,0-4.17-9.48,68.84,68.84,0,0,0-5.44-8.73,67.72,67.72,0,0,0-8.26-9.38V317l-.31,2.94-.79,7.63L285.54,322a55.94,55.94,0,0,0-18.38-12.44,55.18,55.18,0,0,0-16.78-4.11,208.78,208.78,0,0,0,12.39,33.33l3.18,6.8-7.23-1.47a21.9,21.9,0,0,0-6.85-.27,93.4,93.4,0,0,0,20.8,28.35l6.13,5.71-8.25.82-6.59.67,8.94,8.6c2.47,2.37,4.85,4.88,7.28,7.31l7.23,7.37,5.59,5.67-7.94.71-5,.44c-1.68.13-3.36.34-5,.54l-2.61.33c.56.57,1.13,1.15,1.72,1.73,2.25,2.35,4.59,4.61,6.93,6.85s4.73,4.43,7.14,6.59,4.86,4.28,7.37,6.34l7.81,6.43-9.85,2-4.1.82,3.9,3.75q5.22,4.95,10.55,9.72c3.56,3.19,7.15,6.3,10.85,9.33l5.59,4.56,2.85,2.24,2.48,2,.18.14.08.08-.06-.05c-.06,0-.11,0-.18,0a.66.66,0,0,0-.37,0Zm263.83,4.34-8.22,3q-10.08,3.78-20.09,7.81c-3.33,1.35-6.63,2.78-9.93,4.19l-.46.19c1.43.63,2.85,1.3,4.21,2.05l9.6,5.26-10.74,1.87q-15.78,2.75-31.75,4.11c1.16,1,2.37,1.91,3.6,2.8l9.12,6.52-11.14.39q-14.4.46-28.81-.49,2.32,2.46,4.73,4.86l6.8,6.7-9.46-.2a189.51,189.51,0,0,1-27.91-2.73l4.48,5.83,4.85,6.31-7.85-.23c-5.26-.25-10.69-.58-16.26-1-5.31-.44-10.46-.94-15.45-1.54a39.86,39.86,0,0,1,7.29,9.07c3.32,5.67,3.93,10.37,5.47,16.5a124.29,124.29,0,0,0,6.79,19.76,115.11,115.11,0,0,1-30.74-15,107.51,107.51,0,0,1-21.32-19.19,103.15,103.15,0,0,1-6.47-8.75c0,.07-.1.12-.14.19s-.1-.12-.14-.19a103.15,103.15,0,0,1-6.47,8.75,107.51,107.51,0,0,1-21.32,19.19,115.11,115.11,0,0,1-30.74,15,124.29,124.29,0,0,0,6.79-19.76c1.54-6.13,2.15-10.83,5.47-16.5a39.86,39.86,0,0,1,7.29-9.07c-5,.6-10.14,1.1-15.45,1.54-5.57.47-11,.8-16.26,1l-7.85.23,4.85-6.31,4.48-5.83a189.51,189.51,0,0,1-27.91,2.73l-9.46.2,6.8-6.7q2.4-2.4,4.73-4.86-14.38,1-28.81.49l-11.14-.39,9.12-6.52c1.23-.89,2.44-1.83,3.6-2.8q-15.94-1.38-31.75-4.11l-10.74-1.87,9.6-5.26c1.36-.75,2.78-1.42,4.21-2.05l-.46-.19c-3.3-1.41-6.6-2.84-9.93-4.19q-10-4-20.09-7.81l-8.22-3,7.85-3.93A110.45,110.45,0,0,1,240.74,465a107.93,107.93,0,0,1,12.46-2.31l0,0-12.61-7.41,14.54.36q12.61.3,25.15,1.66l-10-8.59,13.83,2.45c1.37.24,2.72.5,4.08.79-.19-.16-.37-.3-.54-.46-3.76-3.18-7.4-6.46-11-9.86l-6.35-6.07,8.63-1.93c1.11-.25,2.22-.46,3.33-.71l-.3-.27c-2.49-2.29-4.89-4.7-7.25-7.12s-4.59-5-6.8-7.57-4.28-5.25-6.26-8h0l-3.95-5.43,6.27-.75,10.26-1.21c.77-.08,1.56-.19,2.35-.28L275,400.67c-2.4-2.41-4.74-4.88-7.19-7.26L253,379.24l-5.94-5.71,8.08-.82L262,372a100,100,0,0,1-18.77-29.38l-1.59-3.79,3.86-1.25a28.5,28.5,0,0,1,8-1.39,216.5,216.5,0,0,1-11.53-33.8l-1.18-4.72h4.75a63,63,0,0,1,39.23,13.63c-.06-.7-.14-1.39-.22-2.08l-1.27-8.87,7.1,5.3a76.85,76.85,0,0,1,15.94,16.12,77.88,77.88,0,0,1,6,9.7l.14.25a25.52,25.52,0,0,0-.6-4.42v0l-3.28-14.7L318.26,324A108.22,108.22,0,0,1,332,344.74a106.93,106.93,0,0,1,5,11.47c.59,1.61,1.12,3.24,1.63,4.87l1.25-1.63-.06-8.59,6.54,7.64v0a48.75,48.75,0,0,0,8.6,7.83,111.77,111.77,0,0,1-7.75-25,115.63,115.63,0,0,1-1.62-12.73l-.76-10.52,7.12,7.65a33.71,33.71,0,0,0,8.1,6.38,98.37,98.37,0,0,1-5.55-40.83l.84-11.23,5.95,9.49a31.59,31.59,0,0,0,3.63,4.75c-.1-.54-.2-1-.26-1.58a62.34,62.34,0,0,1,6.14-37.59l5.93-11.47,1,12.92a19.36,19.36,0,0,0,.34,2.39,120.77,120.77,0,0,1,19.88-34.85l2.06-2.51,2.06,2.51A120.77,120.77,0,0,1,421.94,259a19.36,19.36,0,0,0,.34-2.39l1-12.92,5.93,11.47a62.34,62.34,0,0,1,6.14,37.59c-.06.54-.16,1-.26,1.58a31.59,31.59,0,0,0,3.63-4.75l5.95-9.49.84,11.23A98.37,98.37,0,0,1,440,332.13a33.71,33.71,0,0,0,8.1-6.38l7.12-7.65-.76,10.52a115.63,115.63,0,0,1-1.62,12.73,111.77,111.77,0,0,1-7.75,25,48.75,48.75,0,0,0,8.6-7.83v0l6.54-7.64-.06,8.59,1.25,1.63c.51-1.63,1-3.26,1.63-4.87a106.93,106.93,0,0,1,5-11.47A108.22,108.22,0,0,1,481.74,324l9.69-11.41-3.28,14.7v0a25.52,25.52,0,0,0-.6,4.42l.14-.25a77.88,77.88,0,0,1,6-9.7,76.85,76.85,0,0,1,15.94-16.12l7.1-5.3-1.27,8.87c-.08.69-.16,1.38-.22,2.08a63,63,0,0,1,39.23-13.63h4.75l-1.18,4.72a216.5,216.5,0,0,1-11.53,33.8,28.5,28.5,0,0,1,8,1.39l3.86,1.25-1.59,3.79A100,100,0,0,1,538,372l6.81.67,8.08.82L547,379.24l-14.73,14.17c-2.45,2.38-4.79,4.85-7.19,7.26l-1.61,1.62c.79.09,1.58.2,2.35.28L536,403.78l6.27.75L538.36,410h0c-2,2.75-4.09,5.39-6.26,8s-4.46,5.13-6.8,7.57-4.76,4.83-7.25,7.12c-.1.1-.2.18-.3.27,1.11.25,2.22.46,3.33.71l8.63,1.93-6.35,6.07c-3.57,3.4-7.21,6.68-11,9.86-.17.16-.35.3-.54.46,1.36-.29,2.71-.55,4.08-.79l13.83-2.45-10,8.59q12.53-1.35,25.15-1.66l14.54-.36-12.61,7.41-.05,0A107.93,107.93,0,0,1,559.26,465,110.45,110.45,0,0,1,582,473.42Z" transform="translate(-44.87 -52.33)"/><polygon class="cls-4" points="272.59 429.11 300.38 442.25 287.57 450.03 316 442.34 272.59 429.11"/><path class="cls-5" d="M327.15,422.48a209.69,209.69,0,0,1-44.73-55.88,211.85,211.85,0,0,1-18.49-45.39c10.95,15.63,22.38,32.81,34,51.52,10.78,17.35,20.49,34,29.2,49.72Z" transform="translate(-44.87 -52.33)"/><path class="cls-4" d="M327.15,422.48c-8.71-15.72-18.42-32.39-29.22-49.76-11.62-18.7-23.05-35.88-34-51.52a239.74,239.74,0,0,1,37.91,47A248.71,248.71,0,0,1,327.15,422.48Z" transform="translate(-44.87 -52.33)"/><path class="cls-5" d="M292.86,407.59l-.61-.27-4.84-4.93L280.18,395c-2.43-2.44-4.8-5-7.27-7.33l-8.94-8.6,6.58-.66,8.26-.82-6.14-5.7a93.13,93.13,0,0,1-20.8-28.36,22,22,0,0,1,6.86.27l7.23,1.47-3.19-6.79a209.92,209.92,0,0,1-12.38-33.35c1,.09,1.93.19,2.89.33a286.42,286.42,0,0,0,16.49,42.71c-4.3-1-8.89-1.84-13.19-2.89,7.78,12.88,16.78,24.59,27.87,34.64-5.18.24-10.53.15-15.7.4C276.88,389.47,284.73,398.48,292.86,407.59Z" transform="translate(-44.87 -52.33)"/><path class="cls-6" d="M294,327.65c-.1,4,.1,8,0,12a112.08,112.08,0,0,0-40.45-33.88,2.3,2.3,0,0,1,0-.26,54.94,54.94,0,0,1,13.59,3.74,56,56,0,0,1,18.37,12.45l5.45,5.52.81-7.64.3-2.93v-.05a69.6,69.6,0,0,1,13.71,18.11,70.32,70.32,0,0,1,4.16,9.49l.75,2.06A49.1,49.1,0,0,0,294,327.65Z" transform="translate(-44.87 -52.33)"/><path class="cls-6" d="M377.86,282.13a83.93,83.93,0,0,0,.4,11.3,84.84,84.84,0,0,0,7.53,27.08,29.93,29.93,0,0,1-9-3,30.52,30.52,0,0,1-7-5.08,144.35,144.35,0,0,0,5.54,19.94,142,142,0,0,0,8.9,19.93,43.32,43.32,0,0,1-21.64-6.57q3.89,9.43,8,19.08,5.64,13.09,11.38,25.59c-3.91-1.23-8.14-2.74-12.58-4.59s-8.48-3.81-12.12-5.74A365,365,0,0,0,377.67,451c-.2-.21-.4-.41-.59-.62-4-6.82-7.76-13.71-11-20.78-1.71-3.66-3.29-7.37-4.77-11.09-.72-1.88-1.47-3.74-2.11-5.64s-1.34-3.78-2-5.67c-1.22-3.81-2.33-7.66-3.34-11.51s-1.94-7.73-2.72-11.65c-.93-4.4-1.7-8.85-2.39-13.3a53.72,53.72,0,0,0,13.64,7.79l10,3.88-5.49-9.33a101.67,101.67,0,0,1-9.59-21.8,102.69,102.69,0,0,1-2.84-11.63c-.17-.92-.33-1.85-.48-2.77a41.33,41.33,0,0,0,12,5.44l7.79,2.08-3.53-7.36a90.1,90.1,0,0,1-8.6-35.79,38.77,38.77,0,0,0,7.88,5.66l8.57,4.61-3.37-9.25A55.76,55.76,0,0,1,371.42,280a53,53,0,0,1,2.12-12.12,26.63,26.63,0,0,0,2.09,3.41l4.47,6.24,2.06-7.44A113,113,0,0,1,400,233.32l.16.24A158.51,158.51,0,0,0,387.25,289a21,21,0,0,1-9.39-6.86Z" transform="translate(-44.87 -52.33)"/><polygon class="cls-4" points="437.68 429.12 409.89 442.25 422.69 450.03 394.27 442.34 437.68 429.12"/><path class="cls-5" d="M475.07,422.48a209.76,209.76,0,0,0,63.21-101.27c-10.94,15.63-22.37,32.82-34,51.52-10.78,17.35-20.49,34-29.2,49.72Z" transform="translate(-44.87 -52.33)"/><path class="cls-4" d="M475.07,422.49c8.71-15.73,18.42-32.4,29.21-49.76,11.63-18.71,23.06-35.89,34-51.53a240.14,240.14,0,0,0-37.9,47A248.75,248.75,0,0,0,475.07,422.49Z" transform="translate(-44.87 -52.33)"/><path class="cls-5" d="M507.14,407.59l.61-.27,4.84-4.93,7.23-7.35c2.44-2.44,4.81-5,7.28-7.33l8.94-8.6-6.58-.65-8.26-.83,6.13-5.7a94.85,94.85,0,0,0,13.06-15,93.15,93.15,0,0,0,7.74-13.35,22,22,0,0,0-6.86.27L534,345.31l3.19-6.78a209.07,209.07,0,0,0,12.38-33.36c-1,.09-1.92.19-2.89.34a286.73,286.73,0,0,1-16.49,42.7c4.3-1,8.9-1.84,13.19-2.89-7.77,12.88-16.78,24.59-27.86,34.64,5.17.25,10.52.16,15.69.4C523.12,389.47,515.27,398.48,507.14,407.59Z" transform="translate(-44.87 -52.33)"/><path class="cls-6" d="M506,327.66c.1,4-.1,8,0,12a112.12,112.12,0,0,1,40.46-33.88,1.17,1.17,0,0,0,0-.26,54.87,54.87,0,0,0-13.58,3.74,56,56,0,0,0-18.38,12.45L509,327.26l-.81-7.64-.3-2.93v-.05a68.3,68.3,0,0,0-8.26,9.38,69.46,69.46,0,0,0-5.45,8.74,71.48,71.48,0,0,0-4.16,9.48l-.74,2.06A49,49,0,0,1,506,327.66Z" transform="translate(-44.87 -52.33)"/><path class="cls-5" d="M422.13,282.43a83.75,83.75,0,0,1-7.94,38.38,29.85,29.85,0,0,0,16.06-8.09,142.38,142.38,0,0,1-14.43,39.87,42.68,42.68,0,0,0,10-1.49A43.48,43.48,0,0,0,437.45,346q-3.87,9.45-8,19.08-5.65,13.09-11.39,25.59c3.92-1.23,8.14-2.74,12.58-4.59s8.49-3.81,12.12-5.74a365,365,0,0,1-20.42,70.95c.2-.2.4-.41.59-.62,4-6.82,7.76-13.71,11-20.77q2.55-5.51,4.77-11.1c.72-1.87,1.46-3.74,2.11-5.63s1.34-3.79,2-5.68c1.21-3.81,2.32-7.66,3.34-11.5s1.94-7.74,2.71-11.66c.93-4.4,1.71-8.85,2.4-13.29a54.08,54.08,0,0,1-13.65,7.79l-10,3.87,5.5-9.33A102.08,102.08,0,0,0,445.53,340c.18-.93.34-1.85.49-2.78a41.33,41.33,0,0,1-12,5.44l-7.79,2.08,3.52-7.36a89.94,89.94,0,0,0,8.61-35.79,38.56,38.56,0,0,1-7.89,5.66l-8.56,4.61,3.37-9.25a55.74,55.74,0,0,0,3.28-22.28,54.21,54.21,0,0,0-2.12-12.12,26.38,26.38,0,0,1-2.09,3.41l-4.48,6.24-2.06-7.44A112.65,112.65,0,0,0,400,233.63c-.06.07-.11.15-.17.23a158.82,158.82,0,0,1,12.93,55.43,20.87,20.87,0,0,0,5.1-2.71A21.39,21.39,0,0,0,422.13,282.43Z" transform="translate(-44.87 -52.33)"/><path class="cls-5" d="M377,450.28s-.87-.66-1.11-.86c-10.67-8.77-19.52-22.06-19.52-22.06a131.27,131.27,0,0,1-12-22.58,55.22,55.22,0,0,1-24.55-23.7,56.71,56.71,0,0,1-6.32-30.95h0l3.09-5.25a23.25,23.25,0,0,0,2.73-7.13c0,.07.09.12.13.19.36.56.73,1.14,1.08,1.72q2.55,4.07,4.7,8.34a103.4,103.4,0,0,1,4.66,10.63,105.35,105.35,0,0,1,3.42,11.1v0l4.48,17.2,2.5-16.57,0-.16a133.93,133.93,0,0,0,2.5,15.68c.94,4.1,2,8.16,3.32,12.13.65,2,1.35,4,2.07,5.93s1.53,3.89,2.34,5.83c1.6,3.86,3.43,7.6,5.38,11.28s4.06,7.24,6.3,10.73c1.74,2.66,3.56,5.27,5.46,7.8,0,0,0,0,0,0a60.22,60.22,0,0,0,6.59,8.05l.08.08C375.25,448.64,376.12,449.48,377,450.28Z" transform="translate(-44.87 -52.33)"/><path class="cls-5" d="M423,450.59s.78-.58,1.12-.86c16.65-13.68,25.41-27,25.41-27a103.8,103.8,0,0,0,7.75-14.11,58,58,0,0,0,25.2-27.94,58.76,58.76,0,0,0,4-30.21h0l-3.09-5.25a23.27,23.27,0,0,1-2.74-7.13c0,.06-.09.12-.12.19-.36.56-.73,1.14-1.08,1.71q-2.55,4.07-4.7,8.35a103.4,103.4,0,0,0-4.66,10.63,107.82,107.82,0,0,0-3.43,11.1v0l-4.47,17.2-2.5-16.58,0-.15a131.84,131.84,0,0,1-2.49,15.68c-.94,4.09-2,8.16-3.32,12.13-.65,2-1.35,4-2.07,5.93s-1.53,3.89-2.34,5.82c-1.6,3.86-3.43,7.61-5.38,11.29s-4.07,7.24-6.3,10.73c-1.74,2.66-3.56,5.27-5.46,7.8,0,0,0,0,0,0a58.71,58.71,0,0,1-6.59,8.05.29.29,0,0,1-.07.08C424.74,449,423.88,449.78,423,450.59Z" transform="translate(-44.87 -52.33)"/><path class="cls-5" d="M372.26,404.88a52.2,52.2,0,0,0,27.83-8.14,57.74,57.74,0,0,0,37.33,16.15c-.08-4.77,0-9.55-.1-14.32a35.19,35.19,0,0,1-31.54-9.3c-1.86-1.83-3.94-4-6.51-3.75-1.75.2-3.13,1.55-4.41,2.79C388.22,394.7,380.66,401.22,372.26,404.88Z" transform="translate(-44.87 -52.33)"/><path class="cls-5" d="M377.71,428.46a15.35,15.35,0,0,0,9.19,9.59A14.93,14.93,0,0,0,400,436.5a29.15,29.15,0,0,0,11.3,3.39,15.31,15.31,0,0,0,8.7-1.51,10.87,10.87,0,0,0,5.29-7.55,11.07,11.07,0,0,0-2.46-8.94c-1.46,3-3.07,6.09-5.87,7.76-3.69,2.19-8.48,1.24-12.16-.95-1.44-.86-2.91-1.92-4.57-1.83-3.09.18-4.65,4.06-7.52,5.24-2.44,1-5.17-.2-7.54-1.38S380,429.57,377.71,428.46Z" transform="translate(-44.87 -52.33)"/><path class="cls-7" d="M422.91,413.6a3.69,3.69,0,0,0-5.21-.8,3.85,3.85,0,0,0-.78,5.31s2.39,3.35,1.3,6.32-5.27,4.32-7.81,4.08l-.27,0a7.33,7.33,0,0,1-5.74-3.94,7.07,7.07,0,0,1-.43-4.28A3.79,3.79,0,0,0,401,415.8a3.73,3.73,0,0,0-4.38,3,15.63,15.63,0,0,0,0,6,8.73,8.73,0,0,1-4.69,3.62c-.19.06-4.86,1.38-7.58-1.67a7.35,7.35,0,0,1-.89-8,3.83,3.83,0,0,0-1.71-5.08,3.69,3.69,0,0,0-5,1.75,15.1,15.1,0,0,0,2.07,16.45,13.67,13.67,0,0,0,10.5,4.47,17.44,17.44,0,0,0,4.66-.62,15.47,15.47,0,0,0,6.47-3.88,14.92,14.92,0,0,0,8.83,4.26l.45,0a11.43,11.43,0,0,0,1.32.07c5.43,0,11.84-3,14.06-9.05C427.59,420.56,423.71,414.71,422.91,413.6Z" transform="translate(-44.87 -52.33)"/><ellipse class="cls-2" cx="390.01" cy="307.06" rx="35.73" ry="36.42"/><path class="cls-7" d="M434.87,406.13c-25.28,0-45.85-21-45.85-46.75s20.57-46.74,45.85-46.74,45.86,21,45.86,46.74S460.16,406.13,434.87,406.13Zm0-83.13c-19.68,0-35.69,16.32-35.69,36.38s16,36.39,35.69,36.39,35.7-16.32,35.7-36.39S454.56,323,434.87,323Z" transform="translate(-44.87 -52.33)"/><ellipse class="cls-7" cx="392.98" cy="304.29" rx="21.41" ry="21.83"/><path class="cls-2" d="M454.49,350a6.46,6.46,0,1,1-6.46-6.59A6.52,6.52,0,0,1,454.49,350Z" transform="translate(-44.87 -52.33)"/><path class="cls-8" d="M368.87,395.64c-1.12.11-2.26.16-3.4.16-19.73,0-35.74-16.3-35.74-36.41s16-36.42,35.74-36.42a32,32,0,0,1,3.4.17c-18.15,1.72-32.35,17.29-32.35,36.25S350.72,393.91,368.87,395.64Z" transform="translate(-44.87 -52.33)"/><path class="cls-8" d="M431.68,323.14a32,32,0,0,1,3.4-.17c19.74,0,35.74,16.3,35.74,36.42s-16,36.41-35.74,36.41c-1.14,0-2.28-.05-3.4-.16,18.16-1.73,32.36-17.3,32.36-36.25S449.84,324.86,431.68,323.14Z" transform="translate(-44.87 -52.33)"/><path class="cls-2" d="M401.2,359.39c0,18.94-14.2,34.51-32.33,36.25-18.15-1.73-32.35-17.3-32.35-36.25s14.2-34.53,32.35-36.25C387,324.88,401.2,340.44,401.2,359.39Z" transform="translate(-44.87 -52.33)"/><path class="cls-7" d="M365.47,406.13c-25.29,0-45.86-21-45.86-46.75s20.57-46.74,45.86-46.74,45.86,21,45.86,46.74S390.76,406.13,365.47,406.13Zm0-83.13c-19.68,0-35.69,16.32-35.69,36.38s16,36.39,35.69,36.39,35.69-16.32,35.69-36.39S385.15,323,365.47,323Z" transform="translate(-44.87 -52.33)"/><ellipse class="cls-7" cx="323.58" cy="304.29" rx="21.41" ry="21.83"/><path class="cls-2" d="M385.09,350a6.46,6.46,0,1,1-6.46-6.59A6.53,6.53,0,0,1,385.09,350Z" transform="translate(-44.87 -52.33)"/><path class="cls-5" d="M500.71,487.3a37.23,37.23,0,0,1,19.19,4.63l-.42.72c-3.74.18-7.66.46-11.75.9-5.21.55-10.1,1.29-14.67,2.11,1.27,1,2.61,2,4,3,2.27,1.6,4.49,3.06,6.64,4.37a128.89,128.89,0,0,0-35.44-1.13,44.73,44.73,0,0,1,4.84,4.66A46.26,46.26,0,0,1,478,513q-7.25-1.81-14.73-3.92-6.76-1.91-13.25-3.86c-2.24-1-4.49-1.94-6.71-3,.84,7.19,3.09,13.61,7.8,19h0a34.54,34.54,0,0,1-19.36-9.46,34,34,0,0,1-7.2-10.44c-2.3,2.64-4.62,5.27-6.92,7.9-2.51-1.61-5.11-3.39-7.76-5.36-1.65-1.22-3.23-2.45-4.73-3.67l-5.82,14.3q-3.22-7-6.46-13.92a23.2,23.2,0,0,1-2.63,3.29,23.68,23.68,0,0,1-7.76,5.36c-2.3-2.63-4.62-5.26-6.92-7.9a34,34,0,0,1-7.2,10.44,34.54,34.54,0,0,1-19.36,9.46h0c4.71-5.43,7-11.85,7.8-19-2.22,1-4.47,2-6.71,3q-6.48,2-13.25,3.86-7.5,2.1-14.73,3.92a46.26,46.26,0,0,1,4.85-6.49,44.73,44.73,0,0,1,4.84-4.66A128.89,128.89,0,0,0,296.28,503c2.15-1.31,4.37-2.77,6.64-4.37,1.41-1,2.75-2,4-3-4.57-.82-9.46-1.56-14.67-2.11-4.65-.5-9.09-.81-13.29-1a37.27,37.27,0,0,1,20.31-5.27,240.88,240.88,0,0,0-69.36-10.68s0,.05,0,.08q5.69,2.16,11.33,4.46c3.37,1.34,6.7,2.78,10,4.21l10,4.28,11.39,4.86-10.47,2.06c8.13,1.06,16.29,1.87,24.47,2.37l8.09.5-5.63,5.94c-.91,1-1.83,1.88-2.77,2.77,9.06,0,18.14-.46,27.17-1.38l9.57-.95-6.41,7.23c-1.6,1.78-3.19,3.61-4.82,5.38a175.64,175.64,0,0,0,27-4L349,512.05l-6.43,8.34-5.73,7.43q8.22-.57,17-1.58c9.08-1.06,17.71-2.39,25.85-3.89a135.9,135.9,0,0,0-7.36,12,138.43,138.43,0,0,0-9.13,20.6,109.62,109.62,0,0,1,20.31-21.73,108.08,108.08,0,0,1,16.25-10.93l.16-.28,0,.07a0,0,0,1,1,.08,0l0-.07.16.28a108.08,108.08,0,0,1,16.25,10.93A109.62,109.62,0,0,1,436.79,555a138.43,138.43,0,0,0-9.13-20.6,135.9,135.9,0,0,0-7.36-12c8.14,1.5,16.77,2.83,25.85,3.89q8.75,1,17,1.58l-5.73-7.43L451,512.05l10.14,2.33a175.64,175.64,0,0,0,27,4c-1.63-1.77-3.22-3.6-4.82-5.38l-6.41-7.23,9.57.95c9,.92,18.11,1.36,27.17,1.38-.94-.89-1.86-1.81-2.77-2.77l-5.63-5.94,8.09-.5c8.18-.5,16.34-1.31,24.47-2.37l-10.47-2.06,11.39-4.86,10-4.28c3.33-1.43,6.66-2.87,10-4.21q5.65-2.31,11.33-4.46s0-.06,0-.08A240.88,240.88,0,0,0,500.71,487.3Z" transform="translate(-44.87 -52.33)"/><path class="cls-6" d="M279,468.4l5.63,4.05c-36.17-1.23-46.3,5.1-46.3,5.1l34.4,17-11.39-4.86-10-4.28c-3.33-1.43-6.66-2.87-10-4.21q-5.66-2.31-11.33-4.46l-.33-.14a96.63,96.63,0,0,1,12.88-4.15,100.61,100.61,0,0,1,22.31-3l11.94-.21-8-5.39q11,.76,21.94,2.35l11.62,1.68Z" transform="translate(-44.87 -52.33)"/><path class="cls-6" d="M521,468.4l-5.63,4.05c36.17-1.23,46.3,5.1,46.3,5.1l-34.4,17,11.39-4.86,10-4.28c3.33-1.43,6.66-2.87,10-4.21q5.65-2.31,11.33-4.46l.33-.14a96.63,96.63,0,0,0-12.88-4.15,100.61,100.61,0,0,0-22.31-3l-11.94-.21,8-5.39q-11,.76-21.94,2.35l-11.62,1.68Z" transform="translate(-44.87 -52.33)"/><path class="cls-4" d="M246.9,477.55l49.67,8.67S260,471.83,246.9,477.55Z" transform="translate(-44.87 -52.33)"/><path class="cls-4" d="M553.1,477.55l-49.67,8.67S540.05,471.83,553.1,477.55Z" transform="translate(-44.87 -52.33)"/></svg>